<?xml version="1.0" standalone="no"?>
<!DOCTYPE svg PUBLIC "-//W3C//DTD SVG 20010904//EN"
 "http://www.w3.org/TR/2001/REC-SVG-20010904/DTD/svg10.dtd">
<svg version="1.0" xmlns="http://www.w3.org/2000/svg"
 width="393.000000pt" height="396.000000pt" viewBox="0 0 393.000000 396.000000"
 preserveAspectRatio="xMidYMid meet">

<g transform="translate(0.000000,396.000000) scale(0.100000,-0.100000)"
fill="#000000" stroke="none">
<path d="M1904 3896 c-97 -45 -151 -140 -146 -257 l2 -55 -481 -277 -481 -277
-43 38 c-106 93 -275 81 -367 -27 -62 -73 -79 -187 -40 -274 24 -54 99 -122
151 -138 l41 -12 0 -597 0 -596 -55 -23 c-101 -42 -162 -141 -158 -254 3 -66
32 -124 86 -174 102 -94 257 -91 355 7 26 25 37 31 51 24 11 -5 226 -128 480
-274 l460 -265 -7 -35 c-18 -95 8 -179 77 -243 171 -160 436 -41 434 193 l0
66 496 286 496 286 46 -44 c167 -155 432 -37 433 191 0 110 -78 217 -179 245
l-45 13 2 574 3 575 51 19 c184 69 227 307 79 437 -51 45 -101 62 -176 62 -56
0 -128 -26 -164 -60 -20 -18 -29 -13 -526 273 l-506 292 1 65 c0 81 -28 144
-89 198 -76 67 -187 82 -281 38z m42 -482 c86 -25 182 -1 247 60 15 14 31 26
34 26 4 0 231 -129 505 -287 l498 -287 -7 -35 c-10 -46 -6 -106 8 -150 16 -47
85 -120 137 -143 l42 -19 0 -582 0 -582 -45 -19 c-87 -35 -151 -140 -148 -242
l1 -40 -498 -287 c-273 -158 -501 -287 -505 -287 -4 0 -24 15 -46 33 -46 40
-97 57 -170 57 -57 0 -128 -27 -165 -61 l-21 -19 -483 278 -484 279 -2 61 c-1
39 -9 76 -23 106 -27 54 -97 119 -143 132 l-33 10 -3 600 -2 601 44 17 c95 36
158 133 160 243 l1 62 485 280 485 279 37 -34 c22 -19 60 -40 94 -50z"/>
<path d="M1841 2975 c-266 -60 -482 -212 -620 -436 -189 -308 -184 -715 14
-1014 95 -143 272 -292 417 -352 371 -151 755 -81 1037 191 130 126 215 270
262 446 20 72 23 109 23 240 -1 139 -3 164 -28 245 -82 273 -250 477 -493 599
-132 66 -228 88 -398 92 -106 3 -169 -1 -214 -11z m353 -140 c414 -86 697
-488 636 -905 -5 -36 -17 -89 -26 -119 l-16 -54 -61 61 -62 60 -70 -44 -70
-45 -18 61 -19 60 -79 0 -79 0 0 -140 c0 -77 -4 -140 -8 -140 -5 0 -29 6 -54
14 l-46 13 -105 -84 -106 -84 -89 45 -90 45 -46 -107 c-26 -59 -58 -120 -72
-135 l-25 -29 -70 42 c-323 192 -474 593 -355 946 l23 69 63 3 63 3 -74 -62
c-41 -34 -75 -65 -77 -69 -2 -4 41 -48 95 -98 l98 -91 24 64 c13 36 29 65 36
65 7 0 38 -10 69 -21 l56 -22 24 -81 c13 -44 39 -130 57 -191 17 -60 34 -114
36 -118 4 -7 72 50 189 160 43 40 52 56 58 93 5 38 18 58 77 123 39 42 76 77
83 77 7 0 56 -17 108 -39 l96 -39 72 105 72 105 -63 64 -63 64 12 72 c7 40 15
82 18 93 4 17 -20 36 -150 117 l-156 97 -70 -24 c-58 -20 -76 -22 -95 -13 -24
11 -32 28 -18 41 12 13 194 7 267 -8z m-358 -20 c-3 -8 -9 -21 -12 -29 -3 -9
15 -21 61 -40 78 -31 86 -31 158 -7 l55 19 119 -74 119 -73 -15 -92 -16 -91
53 -47 c29 -25 52 -50 52 -55 0 -17 -62 -106 -73 -106 -7 0 -54 17 -105 37
l-94 37 -84 -89 c-93 -99 -109 -123 -119 -178 -6 -29 -22 -51 -73 -98 l-66
-60 -48 162 c-26 89 -49 163 -50 165 -2 1 -56 20 -120 43 l-117 40 -16 -50
-17 -49 -28 22 c-16 13 -29 26 -29 30 -1 3 51 50 116 105 l116 98 -136 3 c-76
1 -137 5 -137 8 0 13 68 103 115 153 83 88 206 168 330 212 63 22 69 22 61 4z
m618 -1048 c26 -97 23 -96 115 -38 44 28 84 51 89 51 4 0 22 -15 39 -32 l32
-33 -13 -62 c-15 -68 -39 -103 -133 -195 -105 -102 -257 -181 -397 -207 -119
-22 -376 -5 -408 27 -4 4 2 22 15 40 13 17 35 59 48 92 13 33 27 60 32 60 4 0
39 -16 78 -35 l70 -36 106 87 107 87 60 -13 c34 -7 71 -15 84 -18 l22 -4 0
146 c0 135 1 146 19 146 14 0 22 -14 35 -63z"/>
</g>
</svg>
